<?xml version="1.0" encoding="UTF-8"?>
<svg xmlns="http://www.w3.org/2000/svg" xmlns:xlink="http://www.w3.org/1999/xlink" width="134pt" height="50pt" viewBox="0 0 134 50" version="1.1">
<defs>
<clipPath id="clip1">
  <path d="M 87 2 L 117 2 L 117 31 L 87 31 Z M 87 2 "/>
</clipPath>
<clipPath id="clip2">
  <path d="M 114.042969 7.296875 C 109.875 1.730469 101.046875 1.355469 94.324219 6.453125 C 87.601562 11.554688 85.527344 20.199219 89.695312 25.765625 C 93.859375 31.328125 102.6875 31.703125 109.410156 26.605469 C 116.132812 21.503906 118.207031 12.859375 114.042969 7.296875 Z M 114.042969 7.296875 "/>
</clipPath>
<clipPath id="clip3">
  <path d="M 72.546875 13.769531 L 107.289062 -12.582031 L 131.332031 19.527344 L 96.589844 45.882812 Z M 72.546875 13.769531 "/>
</clipPath>
<clipPath id="clip4">
  <path d="M 114.042969 7.296875 C 109.875 1.730469 101.046875 1.355469 94.324219 6.453125 C 87.601562 11.554688 85.527344 20.199219 89.695312 25.765625 C 93.859375 31.328125 102.6875 31.703125 109.410156 26.605469 C 116.132812 21.503906 118.207031 12.859375 114.042969 7.296875 Z M 114.042969 7.296875 "/>
</clipPath>
<clipPath id="clip5">
  <path d="M 82.222656 15.914062 L 106.550781 -2.539062 L 121.652344 17.632812 L 97.320312 36.085938 Z M 82.222656 15.914062 "/>
</clipPath>
<clipPath id="clip6">
  <path d="M 87 2 L 117 2 L 117 31 L 87 31 Z M 87 2 "/>
</clipPath>
<clipPath id="clip7">
  <path d="M 114.042969 7.296875 C 109.875 1.730469 101.046875 1.355469 94.324219 6.453125 C 87.601562 11.554688 85.527344 20.199219 89.695312 25.765625 C 93.859375 31.328125 102.6875 31.703125 109.410156 26.605469 C 116.132812 21.503906 118.207031 12.859375 114.042969 7.296875 Z M 114.042969 7.296875 "/>
</clipPath>
<clipPath id="clip8">
  <path d="M 72.546875 13.769531 L 107.289062 -12.582031 L 131.332031 19.527344 L 96.589844 45.882812 Z M 72.546875 13.769531 "/>
</clipPath>
<clipPath id="clip9">
  <path d="M 114.042969 7.296875 C 109.875 1.730469 101.046875 1.355469 94.324219 6.453125 C 87.601562 11.554688 85.527344 20.199219 89.695312 25.765625 C 93.859375 31.328125 102.6875 31.703125 109.410156 26.605469 C 116.132812 21.503906 118.207031 12.859375 114.042969 7.296875 Z M 114.042969 7.296875 "/>
</clipPath>
<clipPath id="clip10">
  <path d="M 85.6875 28.027344 L 94.085938 -1.445312 L 118.203125 5.515625 L 109.808594 34.988281 Z M 85.6875 28.027344 "/>
</clipPath>
<clipPath id="clip11">
  <path d="M 87 2 L 117 2 L 117 31 L 87 31 Z M 87 2 "/>
</clipPath>
<clipPath id="clip12">
  <path d="M 114.042969 7.296875 C 109.875 1.730469 101.046875 1.355469 94.324219 6.453125 C 87.601562 11.554688 85.527344 20.199219 89.695312 25.765625 C 93.859375 31.328125 102.6875 31.703125 109.410156 26.605469 C 116.132812 21.503906 118.207031 12.859375 114.042969 7.296875 Z M 114.042969 7.296875 "/>
</clipPath>
<clipPath id="clip13">
  <path d="M 72.546875 13.769531 L 107.289062 -12.582031 L 131.332031 19.527344 L 96.589844 45.882812 Z M 72.546875 13.769531 "/>
</clipPath>
<clipPath id="clip14">
  <path d="M 114.042969 7.296875 C 109.875 1.730469 101.046875 1.355469 94.324219 6.453125 C 87.601562 11.554688 85.527344 20.199219 89.695312 25.765625 C 93.859375 31.328125 102.6875 31.703125 109.410156 26.605469 C 116.132812 21.503906 118.207031 12.859375 114.042969 7.296875 Z M 114.042969 7.296875 "/>
</clipPath>
<clipPath id="clip15">
  <path d="M 82.222656 15.914062 L 106.550781 -2.539062 L 121.652344 17.632812 L 97.320312 36.085938 Z M 82.222656 15.914062 "/>
</clipPath>
<clipPath id="clip16">
  <path d="M 87 2 L 117 2 L 117 31 L 87 31 Z M 87 2 "/>
</clipPath>
<clipPath id="clip17">
  <path d="M 114.042969 7.296875 C 109.875 1.730469 101.046875 1.355469 94.324219 6.453125 C 87.601562 11.554688 85.527344 20.199219 89.695312 25.765625 C 93.859375 31.328125 102.6875 31.703125 109.410156 26.605469 C 116.132812 21.503906 118.207031 12.859375 114.042969 7.296875 Z M 114.042969 7.296875 "/>
</clipPath>
<clipPath id="clip18">
  <path d="M 72.546875 13.769531 L 107.289062 -12.582031 L 131.332031 19.527344 L 96.589844 45.882812 Z M 72.546875 13.769531 "/>
</clipPath>
<clipPath id="clip19">
  <path d="M 114.042969 7.296875 C 109.875 1.730469 101.046875 1.355469 94.324219 6.453125 C 87.601562 11.554688 85.527344 20.199219 89.695312 25.765625 C 93.859375 31.328125 102.6875 31.703125 109.410156 26.605469 C 116.132812 21.503906 118.207031 12.859375 114.042969 7.296875 Z M 114.042969 7.296875 "/>
</clipPath>
<clipPath id="clip20">
  <path d="M 85.6875 28.027344 L 94.085938 -1.445312 L 118.203125 5.515625 L 109.808594 34.988281 Z M 85.6875 28.027344 "/>
</clipPath>
<clipPath id="clip21">
  <path d="M 87 2 L 117 2 L 117 31 L 87 31 Z M 87 2 "/>
</clipPath>
<clipPath id="clip22">
  <path d="M 114.042969 7.296875 C 109.875 1.730469 101.046875 1.355469 94.324219 6.453125 C 87.601562 11.554688 85.527344 20.199219 89.695312 25.765625 C 93.859375 31.328125 102.6875 31.703125 109.410156 26.605469 C 116.132812 21.503906 118.207031 12.859375 114.042969 7.296875 Z M 114.042969 7.296875 "/>
</clipPath>
<clipPath id="clip23">
  <path d="M 72.546875 13.769531 L 107.289062 -12.582031 L 131.332031 19.527344 L 96.589844 45.882812 Z M 72.546875 13.769531 "/>
</clipPath>
<clipPath id="clip24">
  <path d="M 114.042969 7.296875 C 109.875 1.730469 101.046875 1.355469 94.324219 6.453125 C 87.601562 11.554688 85.527344 20.199219 89.695312 25.765625 C 93.859375 31.328125 102.6875 31.703125 109.410156 26.605469 C 116.132812 21.503906 118.207031 12.859375 114.042969 7.296875 Z M 114.042969 7.296875 "/>
</clipPath>
<clipPath id="clip25">
  <path d="M 87 2 L 117 2 L 117 31 L 87 31 Z M 87 2 "/>
</clipPath>
<clipPath id="clip26">
  <path d="M 114.042969 7.296875 C 109.875 1.730469 101.046875 1.355469 94.324219 6.453125 C 87.601562 11.554688 85.527344 20.199219 89.695312 25.765625 C 93.859375 31.328125 102.6875 31.703125 109.410156 26.605469 C 116.132812 21.503906 118.207031 12.859375 114.042969 7.296875 Z M 114.042969 7.296875 "/>
</clipPath>
<clipPath id="clip27">
  <path d="M 72.546875 13.769531 L 107.289062 -12.582031 L 131.332031 19.527344 L 96.589844 45.882812 Z M 72.546875 13.769531 "/>
</clipPath>
<clipPath id="clip28">
  <path d="M 94 8 L 111 8 L 111 25 L 94 25 Z M 94 8 "/>
</clipPath>
<clipPath id="clip29">
  <path d="M 114.042969 7.296875 C 109.875 1.730469 101.046875 1.355469 94.324219 6.453125 C 87.601562 11.554688 85.527344 20.199219 89.695312 25.765625 C 93.859375 31.328125 102.6875 31.703125 109.410156 26.605469 C 116.132812 21.503906 118.207031 12.859375 114.042969 7.296875 Z M 114.042969 7.296875 "/>
</clipPath>
<clipPath id="clip30">
  <path d="M 72.546875 13.769531 L 107.289062 -12.582031 L 131.332031 19.527344 L 96.589844 45.882812 Z M 72.546875 13.769531 "/>
</clipPath>
</defs>
<g id="surface1">
<path style=" stroke:none;fill-rule:nonzero;fill:rgb(0%,0%,0%);fill-opacity:1;" d="M 69.175781 16.5625 L 75.542969 16.148438 C 75.6875 17.195312 75.953125 17.972656 76.386719 18.535156 C 77.089844 19.410156 78.058594 19.847656 79.339844 19.847656 C 80.285156 19.847656 81.035156 19.628906 81.542969 19.167969 C 82.027344 18.800781 82.316406 18.21875 82.316406 17.609375 C 82.316406 17.023438 82.050781 16.464844 81.589844 16.097656 C 81.105469 15.660156 79.96875 15.222656 78.179688 14.832031 C 75.25 14.175781 73.144531 13.296875 71.910156 12.175781 C 70.679688 11.128906 69.976562 9.597656 70.023438 7.964844 C 70.023438 6.84375 70.363281 5.722656 70.992188 4.796875 C 71.71875 3.75 72.710938 2.921875 73.894531 2.460938 C 75.179688 1.898438 76.96875 1.605469 79.21875 1.605469 C 81.976562 1.605469 84.082031 2.117188 85.535156 3.167969 C 86.984375 4.1875 87.855469 5.84375 88.125 8.109375 L 81.832031 8.476562 C 81.664062 7.5 81.324219 6.796875 80.765625 6.332031 C 80.210938 5.871094 79.484375 5.648438 78.542969 5.648438 C 77.765625 5.648438 77.1875 5.820312 76.800781 6.136719 C 76.4375 6.429688 76.195312 6.867188 76.21875 7.355469 C 76.21875 7.71875 76.414062 8.0625 76.703125 8.28125 C 77.015625 8.574219 77.765625 8.839844 78.953125 9.085938 C 81.878906 9.71875 83.960938 10.351562 85.242188 11.007812 C 86.527344 11.664062 87.445312 12.46875 88.003906 13.417969 C 88.582031 14.394531 88.875 15.515625 88.847656 16.660156 C 88.847656 18.023438 88.460938 19.386719 87.6875 20.53125 C 86.890625 21.722656 85.777344 22.648438 84.46875 23.210938 C 83.089844 23.820312 81.347656 24.136719 79.265625 24.136719 C 75.589844 24.136719 73.050781 23.429688 71.621094 21.992188 C 70.195312 20.554688 69.347656 18.753906 69.175781 16.5625 Z M 1.644531 23.769531 L 1.644531 1.996094 L 12.800781 1.996094 C 14.859375 1.996094 16.453125 2.167969 17.542969 2.53125 C 18.609375 2.875 19.550781 3.582031 20.179688 4.53125 C 20.882812 5.578125 21.222656 6.796875 21.195312 8.0625 C 21.269531 10.203125 20.179688 12.25 18.316406 13.320312 C 17.589844 13.734375 16.792969 14.027344 15.96875 14.175781 C 16.574219 14.34375 17.179688 14.636719 17.710938 14.976562 C 18.125 15.320312 18.460938 15.707031 18.777344 16.121094 C 19.140625 16.535156 19.453125 17 19.722656 17.488281 L 22.964844 23.792969 L 15.367188 23.792969 L 11.785156 17.097656 C 11.324219 16.246094 10.9375 15.683594 10.574219 15.417969 C 10.089844 15.074219 9.511719 14.90625 8.929688 14.90625 L 8.347656 14.90625 L 8.347656 23.746094 L 1.644531 23.746094 Z M 8.347656 10.8125 L 11.179688 10.8125 C 11.785156 10.765625 12.367188 10.667969 12.945312 10.519531 C 13.382812 10.449219 13.769531 10.203125 14.035156 9.839844 C 14.6875 8.960938 14.589844 7.71875 13.792969 6.964844 C 13.355469 6.601562 12.511719 6.40625 11.300781 6.40625 L 8.347656 6.40625 Z M 0.121094 42.425781 L 6.484375 42.011719 C 6.628906 43.058594 6.898438 43.839844 7.332031 44.398438 C 8.011719 45.273438 9.003906 45.738281 10.285156 45.738281 C 11.226562 45.738281 11.976562 45.519531 12.484375 45.054688 C 12.96875 44.667969 13.261719 44.105469 13.261719 43.496094 C 13.261719 42.914062 12.996094 42.351562 12.535156 41.988281 C 12.050781 41.550781 10.914062 41.109375 9.097656 40.722656 C 6.171875 40.0625 4.066406 39.1875 2.832031 38.066406 C 1.597656 37.019531 0.894531 35.484375 0.945312 33.851562 C 0.945312 32.734375 1.285156 31.613281 1.914062 30.6875 C 2.636719 29.640625 3.628906 28.8125 4.816406 28.347656 C 6.097656 27.789062 7.890625 27.496094 10.140625 27.496094 C 12.898438 27.496094 15.003906 28.007812 16.453125 29.054688 C 17.90625 30.101562 18.753906 31.734375 19.019531 34 L 12.726562 34.363281 C 12.558594 33.390625 12.21875 32.683594 11.664062 32.222656 C 11.132812 31.757812 10.382812 31.539062 9.4375 31.5625 C 8.664062 31.5625 8.082031 31.734375 7.695312 32.074219 C 7.308594 32.367188 7.089844 32.804688 7.113281 33.292969 C 7.113281 33.65625 7.308594 34 7.597656 34.21875 C 7.914062 34.511719 8.664062 34.777344 9.847656 35.023438 C 12.777344 35.65625 14.859375 36.289062 16.140625 36.945312 C 17.421875 37.601562 18.339844 38.40625 18.898438 39.355469 C 19.480469 40.332031 19.769531 41.453125 19.769531 42.570312 C 19.769531 43.9375 19.359375 45.273438 18.609375 46.417969 C 17.808594 47.613281 16.695312 48.539062 15.390625 49.097656 C 14.011719 49.707031 12.269531 50.023438 10.1875 50.023438 C 6.511719 50.023438 3.96875 49.316406 2.542969 47.882812 C 1.113281 46.417969 0.316406 44.617188 0.121094 42.425781 Z M 0.121094 42.425781 "/>
<path style=" stroke:none;fill-rule:nonzero;fill:rgb(0%,0%,0%);fill-opacity:1;" d="M 32.304688 40.722656 L 38.160156 42.5 C 37.84375 43.984375 37.191406 45.398438 36.296875 46.640625 C 35.472656 47.734375 34.382812 48.585938 33.148438 49.148438 C 31.890625 49.707031 30.292969 50 28.359375 50 C 26.011719 50 24.078125 49.660156 22.601562 48.976562 C 21.101562 48.296875 19.816406 47.078125 18.730469 45.347656 C 17.640625 43.617188 17.109375 41.402344 17.109375 38.699219 C 17.109375 35.09375 18.050781 32.320312 19.960938 30.394531 C 21.875 28.46875 24.558594 27.496094 28.042969 27.496094 C 30.777344 27.496094 32.90625 28.054688 34.480469 29.152344 C 36.027344 30.273438 37.191406 31.976562 37.964844 34.265625 L 32.0625 35.582031 C 31.914062 35.070312 31.699219 34.558594 31.40625 34.121094 C 31.042969 33.609375 30.585938 33.21875 30.027344 32.925781 C 29.472656 32.636719 28.84375 32.511719 28.214844 32.511719 C 26.6875 32.511719 25.527344 33.121094 24.730469 34.363281 C 24.125 35.265625 23.808594 36.703125 23.808594 38.652344 C 23.808594 41.0625 24.171875 42.71875 24.898438 43.617188 C 25.625 44.519531 26.640625 44.957031 27.972656 44.957031 C 29.253906 44.957031 30.222656 44.59375 30.875 43.886719 C 31.527344 43.132812 32.011719 42.085938 32.304688 40.722656 Z M 45.972656 27.863281 L 52.652344 27.863281 L 52.652344 35.484375 L 59.957031 35.484375 L 59.957031 27.863281 L 66.683594 27.863281 L 66.683594 49.632812 L 59.957031 49.632812 L 59.957031 40.816406 L 52.652344 40.816406 L 52.652344 49.632812 L 45.972656 49.632812 Z M 45.972656 27.863281 "/>
<path style=" stroke:none;fill-rule:nonzero;fill:rgb(0%,0%,0%);fill-opacity:1;" d="M 65.765625 38.75 C 65.765625 35.191406 66.757812 32.414062 68.71875 30.441406 C 70.679688 28.46875 73.4375 27.472656 76.945312 27.472656 C 80.550781 27.472656 83.308594 28.445312 85.269531 30.394531 C 87.226562 32.34375 88.195312 35.070312 88.195312 38.578125 C 88.195312 41.136719 87.761719 43.203125 86.914062 44.835938 C 86.089844 46.445312 84.808594 47.757812 83.234375 48.636719 C 81.613281 49.539062 79.605469 50 77.210938 50 C 74.765625 50 72.757812 49.609375 71.160156 48.832031 C 69.515625 48.003906 68.160156 46.710938 67.265625 45.128906 C 66.273438 43.425781 65.765625 41.304688 65.765625 38.75 Z M 72.445312 38.773438 C 72.445312 40.964844 72.855469 42.546875 73.652344 43.523438 C 74.453125 44.472656 75.566406 44.957031 76.96875 44.957031 C 78.394531 44.957031 79.507812 44.496094 80.308594 43.546875 C 81.105469 42.597656 81.492188 40.914062 81.492188 38.480469 C 81.492188 36.433594 81.082031 34.925781 80.257812 34 C 79.4375 33.050781 78.324219 32.585938 76.921875 32.585938 C 75.6875 32.539062 74.5 33.074219 73.679688 34.023438 C 72.855469 34.972656 72.445312 36.554688 72.445312 38.773438 Z M 95.042969 38.75 C 95.042969 35.191406 96.035156 32.414062 97.996094 30.441406 C 99.953125 28.46875 102.714844 27.472656 106.222656 27.472656 C 109.828125 27.472656 112.609375 28.445312 114.546875 30.394531 C 116.480469 32.34375 117.472656 35.070312 117.472656 38.578125 C 117.472656 41.136719 117.039062 43.203125 116.191406 44.835938 C 115.367188 46.445312 114.085938 47.757812 112.511719 48.636719 C 110.890625 49.539062 108.882812 50 106.488281 50 C 104.042969 50 102.035156 49.609375 100.4375 48.832031 C 98.792969 48.003906 97.4375 46.710938 96.542969 45.128906 C 95.550781 43.425781 95.042969 41.304688 95.042969 38.75 Z M 101.722656 38.773438 C 101.722656 40.964844 102.132812 42.546875 102.929688 43.523438 C 103.730469 44.472656 104.84375 44.957031 106.246094 44.957031 C 107.671875 44.957031 108.785156 44.496094 109.585938 43.546875 C 110.382812 42.597656 110.769531 40.914062 110.769531 38.480469 C 110.769531 36.433594 110.359375 34.925781 109.535156 34 C 108.714844 33.050781 107.601562 32.585938 106.199219 32.585938 C 104.964844 32.539062 103.753906 33.074219 102.957031 34.023438 C 102.132812 34.972656 101.722656 36.554688 101.722656 38.773438 Z M 101.722656 38.773438 "/>
<path style=" stroke:none;fill-rule:nonzero;fill:rgb(0%,0%,0%);fill-opacity:1;" d="M 116.769531 27.863281 L 123.449219 27.863281 L 123.449219 44.277344 L 133.878906 44.277344 L 133.878906 49.632812 L 116.746094 49.632812 L 116.746094 27.863281 Z M 116.769531 27.863281 "/>
<path style=" stroke:none;fill-rule:nonzero;fill:rgb(100%,100%,100%);fill-opacity:1;" d="M 114.042969 7.296875 C 109.875 1.730469 101.046875 1.355469 94.324219 6.453125 C 87.601562 11.554688 85.527344 20.199219 89.695312 25.765625 C 93.859375 31.328125 102.6875 31.703125 109.410156 26.605469 C 116.132812 21.503906 118.207031 12.859375 114.042969 7.296875 Z M 114.042969 7.296875 "/>
<g clip-path="url(#clip1)" clip-rule="nonzero">
<g clip-path="url(#clip2)" clip-rule="nonzero">
<path style=" stroke:none;fill-rule:nonzero;fill:rgb(100%,100%,100%);fill-opacity:1;" d="M 72.546875 13.769531 L 107.289062 -12.582031 L 131.332031 19.527344 L 96.589844 45.882812 Z M 72.546875 13.769531 "/>
<g clip-path="url(#clip3)" clip-rule="nonzero">
<path style=" stroke:none;fill-rule:nonzero;fill:rgb(100%,100%,100%);fill-opacity:1;" d="M 114.042969 7.296875 C 109.875 1.730469 101.046875 1.355469 94.324219 6.453125 C 87.601562 11.554688 85.527344 20.199219 89.695312 25.765625 C 93.859375 31.328125 102.6875 31.703125 109.410156 26.605469 C 116.132812 21.503906 118.207031 12.859375 114.042969 7.296875 Z M 114.042969 7.296875 "/>
<g clip-path="url(#clip4)" clip-rule="nonzero">
<path style=" stroke:none;fill-rule:nonzero;fill:rgb(100%,100%,100%);fill-opacity:1;" d="M 82.222656 15.914062 L 106.550781 -2.539062 L 121.652344 17.632812 L 97.320312 36.085938 Z M 82.222656 15.914062 "/>
<g clip-path="url(#clip5)" clip-rule="nonzero">
<path style="fill-rule:nonzero;fill:rgb(100%,100%,100%);fill-opacity:1;stroke-width:4;stroke-linecap:butt;stroke-linejoin:miter;stroke:rgb(0%,0%,0%);stroke-opacity:1;stroke-miterlimit:10;" d="M 483.502817 67.9075 C 483.501048 39.287398 455.28924 16.099503 420.503296 16.094228 C 385.707698 16.101763 357.499861 39.289307 357.50163 67.909408 C 357.500159 96.506984 385.711967 119.694879 420.497911 119.700154 C 455.293509 119.692619 483.501346 96.505076 483.502817 67.9075 Z M 483.502817 67.9075 " transform="matrix(0.193236,-0.146573,0.145619,0.194502,10.724324,64.957219)"/>
</g>
</g>
</g>
</g>
</g>
<g clip-path="url(#clip6)" clip-rule="nonzero">
<g clip-path="url(#clip7)" clip-rule="nonzero">
<g clip-path="url(#clip8)" clip-rule="nonzero">
<g clip-path="url(#clip9)" clip-rule="nonzero">
<g clip-path="url(#clip10)" clip-rule="nonzero">
<path style="fill:none;stroke-width:4;stroke-linecap:butt;stroke-linejoin:miter;stroke:rgb(0%,0%,0%);stroke-opacity:1;stroke-miterlimit:10;" d="M 357.803613 17.00061 L 483.701723 16.999161 L 483.701457 120.707996 L 357.790454 120.699729 Z M 357.803613 17.00061 " transform="matrix(0.193238,-0.14657,0.145615,0.194505,10.605744,65.050521)"/>
</g>
</g>
</g>
</g>
</g>
<g clip-path="url(#clip11)" clip-rule="nonzero">
<g clip-path="url(#clip12)" clip-rule="nonzero">
<g clip-path="url(#clip13)" clip-rule="nonzero">
<g clip-path="url(#clip14)" clip-rule="nonzero">
<path style="fill:none;stroke-width:4;stroke-linecap:butt;stroke-linejoin:miter;stroke:rgb(0%,0%,0%);stroke-opacity:1;stroke-miterlimit:10;" d="M 483.502817 67.9075 C 483.501048 39.287398 455.28924 16.099503 420.503296 16.094228 C 385.707698 16.101763 357.499861 39.289307 357.50163 67.909408 C 357.500159 96.506984 385.711967 119.694879 420.497911 119.700154 C 455.293509 119.692619 483.501346 96.505076 483.502817 67.9075 Z M 483.502817 67.9075 " transform="matrix(0.193236,-0.146573,0.145619,0.194502,10.724324,64.957219)"/>
<path style=" stroke:none;fill-rule:nonzero;fill:rgb(100%,100%,100%);fill-opacity:1;" d="M 82.222656 15.914062 L 106.550781 -2.539062 L 121.652344 17.632812 L 97.320312 36.085938 Z M 82.222656 15.914062 "/>
<g clip-path="url(#clip15)" clip-rule="nonzero">
<path style="fill-rule:nonzero;fill:rgb(100%,100%,100%);fill-opacity:1;stroke-width:4;stroke-linecap:butt;stroke-linejoin:miter;stroke:rgb(0%,0%,0%);stroke-opacity:1;stroke-miterlimit:10;" d="M 483.502817 67.9075 C 483.501048 39.287398 455.28924 16.099503 420.503296 16.094228 C 385.707698 16.101763 357.499861 39.289307 357.50163 67.909408 C 357.500159 96.506984 385.711967 119.694879 420.497911 119.700154 C 455.293509 119.692619 483.501346 96.505076 483.502817 67.9075 Z M 483.502817 67.9075 " transform="matrix(0.193236,-0.146573,0.145619,0.194502,10.724324,64.957219)"/>
</g>
</g>
</g>
</g>
</g>
<g clip-path="url(#clip16)" clip-rule="nonzero">
<g clip-path="url(#clip17)" clip-rule="nonzero">
<g clip-path="url(#clip18)" clip-rule="nonzero">
<g clip-path="url(#clip19)" clip-rule="nonzero">
<g clip-path="url(#clip20)" clip-rule="nonzero">
<path style="fill:none;stroke-width:4;stroke-linecap:butt;stroke-linejoin:miter;stroke:rgb(0%,0%,0%);stroke-opacity:1;stroke-miterlimit:10;" d="M 357.803613 17.00061 L 483.701723 16.999161 L 483.701457 120.707996 L 357.790454 120.699729 Z M 357.803613 17.00061 " transform="matrix(0.193238,-0.14657,0.145615,0.194505,10.605744,65.050521)"/>
</g>
</g>
</g>
</g>
</g>
<g clip-path="url(#clip21)" clip-rule="nonzero">
<g clip-path="url(#clip22)" clip-rule="nonzero">
<g clip-path="url(#clip23)" clip-rule="nonzero">
<g clip-path="url(#clip24)" clip-rule="nonzero">
<path style="fill:none;stroke-width:4;stroke-linecap:butt;stroke-linejoin:miter;stroke:rgb(0%,0%,0%);stroke-opacity:1;stroke-miterlimit:10;" d="M 330.901614 -14.202384 L 510.690714 -14.198913 L 510.70214 150.894804 L 330.903387 150.904142 Z M 330.901614 -14.202384 " transform="matrix(0.193236,-0.146573,0.145619,0.194502,10.672988,65.033183)"/>
</g>
</g>
</g>
</g>
<g clip-path="url(#clip25)" clip-rule="nonzero">
<g clip-path="url(#clip26)" clip-rule="nonzero">
<g clip-path="url(#clip27)" clip-rule="nonzero">
<path style="fill:none;stroke-width:4;stroke-linecap:butt;stroke-linejoin:miter;stroke:rgb(0%,0%,0%);stroke-opacity:1;stroke-miterlimit:10;" d="M 483.502817 67.9075 C 483.501048 39.287398 455.28924 16.099503 420.503296 16.094228 C 385.707698 16.101763 357.499861 39.289307 357.50163 67.909408 C 357.500159 96.506984 385.711967 119.694879 420.497911 119.700154 C 455.293509 119.692619 483.501346 96.505076 483.502817 67.9075 Z M 483.502817 67.9075 " transform="matrix(0.193236,-0.146573,0.145619,0.194502,10.724324,64.957219)"/>
</g>
</g>
</g>
<g clip-path="url(#clip28)" clip-rule="nonzero">
<g clip-path="url(#clip29)" clip-rule="nonzero">
<g clip-path="url(#clip30)" clip-rule="nonzero">
<path style=" stroke:none;fill-rule:nonzero;fill:rgb(0%,0%,0%);fill-opacity:1;" d="M 95.066406 14.929688 L 97.488281 13.222656 L 100.464844 17.488281 C 100.972656 18.167969 101.359375 18.898438 101.648438 19.703125 C 101.816406 20.3125 101.769531 20.96875 101.527344 21.554688 C 101.214844 22.285156 100.707031 22.894531 100.027344 23.332031 C 99.230469 23.890625 98.550781 24.207031 97.972656 24.304688 C 97.414062 24.402344 96.832031 24.304688 96.300781 24.0625 C 95.722656 23.769531 95.210938 23.355469 94.824219 22.820312 L 96.90625 20.871094 C 97.074219 21.140625 97.292969 21.382812 97.535156 21.578125 C 97.703125 21.699219 97.898438 21.773438 98.117188 21.773438 C 98.285156 21.773438 98.453125 21.699219 98.574219 21.601562 C 98.816406 21.457031 98.988281 21.164062 98.964844 20.871094 C 98.890625 20.457031 98.722656 20.042969 98.453125 19.726562 Z M 102.328125 17.632812 L 104.527344 15.878906 C 104.769531 16.171875 105.085938 16.390625 105.421875 16.511719 C 105.90625 16.660156 106.414062 16.5625 106.828125 16.246094 C 107.117188 16.050781 107.359375 15.78125 107.457031 15.441406 C 107.601562 15.003906 107.359375 14.515625 106.921875 14.371094 C 106.851562 14.34375 106.777344 14.320312 106.707031 14.320312 C 106.414062 14.296875 105.90625 14.417969 105.15625 14.734375 C 103.921875 15.246094 102.957031 15.441406 102.230469 15.367188 C 101.527344 15.292969 100.875 14.929688 100.488281 14.320312 C 100.195312 13.90625 100.050781 13.417969 100.027344 12.933594 C 100.027344 12.371094 100.171875 11.8125 100.488281 11.347656 C 100.945312 10.691406 101.503906 10.132812 102.179688 9.691406 C 103.199219 8.988281 104.09375 8.644531 104.867188 8.644531 C 105.640625 8.644531 106.367188 9.011719 107.042969 9.765625 L 104.867188 11.496094 C 104.429688 10.933594 103.609375 10.8125 103.050781 11.25 L 102.980469 11.324219 C 102.738281 11.472656 102.566406 11.691406 102.472656 11.957031 C 102.398438 12.152344 102.445312 12.371094 102.566406 12.542969 C 102.664062 12.664062 102.808594 12.761719 102.980469 12.761719 C 103.171875 12.785156 103.511719 12.6875 103.996094 12.46875 C 105.207031 11.957031 106.125 11.664062 106.753906 11.570312 C 107.285156 11.472656 107.84375 11.519531 108.351562 11.738281 C 108.8125 11.933594 109.199219 12.273438 109.464844 12.6875 C 109.804688 13.175781 109.996094 13.761719 110.019531 14.371094 C 110.042969 15.003906 109.875 15.609375 109.535156 16.148438 C 109.101562 16.804688 108.542969 17.363281 107.890625 17.804688 C 106.5625 18.730469 105.472656 19.117188 104.601562 18.972656 C 103.65625 18.824219 102.882812 18.339844 102.328125 17.632812 Z M 102.328125 17.632812 "/>
</g>
</g>
</g>
</g>
</svg>
